<svg version="1.1" id="layer" xmlns="http://www.w3.org/2000/svg" xmlns:xlink="http://www.w3.org/1999/xlink" x="0px" y="0px" viewBox="-17.6 -5.291 75 75" style="enable-background:new -153 -46 652 652;" xml:space="preserve" width="75" height="75"><style type="text/css">.st0{fill:#000000;}</style><path class="st0" d="M11.077 27.09h2.278L11.388 36.281H9.156l1.921 -9.087v-0.104zm42.814 2.174h-0.759c-1.311 0 -2.025 0.403 -3.083 1.518l0.299 -1.369h-2.174L46.656 36.235h2.278l0.656 -2.933c0.253 -1.369 1.162 -2.117 2.68 -2.117 0.403 0 0.805 0.104 1.208 0.207l0.46 -2.117h-0.046zm-45.288 0.15c-0.207 0.863 -0.805 1.518 -1.61 1.817 1.012 0.253 1.369 1.265 1.162 2.278 -0.299 1.162 -1.162 2.68 -3.934 2.68H-2.301l1.967 -9.087h6.821c1.369 0 2.473 0.61 2.117 2.278v0.035zm-4.187 2.922H1.035L0.529 34.509h3.681c0.656 0 1.162 -0.46 1.265 -1.058 0.207 -0.702 -0.207 -1.116 -1.012 -1.116h-0.046zm0.506 -3.531H1.783l-0.46 1.921h3.485c0.552 0 1.058 -0.357 1.116 -0.955 0.15 -0.552 0 -1.012 -1.012 -1.012l0.012 0.046zm-14.448 -2.726c-3.071 0 -5.556 2.485 -5.556 5.556s2.485 5.556 5.556 5.556 5.556 -2.485 5.556 -5.556 -2.485 -5.556 -5.556 -5.556zm41.607 7.12v0.207h-6.568c-0.207 0.702 0.253 1.714 1.771 1.714 0.805 0 1.564 -0.299 2.071 -0.909h2.427c-1.012 1.61 -2.726 2.278 -4.751 2.278 -2.772 0 -4.291 -1.058 -3.785 -3.681 0.552 -2.519 2.623 -3.635 5.303 -3.635 3.025 -0.012 4.084 1.507 3.531 4.026zm-2.025 -1.058c0 -0.403 -0.207 -1.518 -1.863 -1.518 -1.047 -0.046 -2.002 0.552 -2.427 1.518h4.291zm11.917 -0.61 -0.702 3.382c-0.104 0.506 -0.15 0.955 0 1.415H38.995v-0.759c-0.955 0.759 -2.427 1.012 -3.428 1.012 -1.771 0 -2.933 -0.61 -2.519 -2.22s1.863 -2.025 3.232 -2.117l2.427 -0.15c0.702 -0.046 0.955 -0.207 1.058 -0.759 0.104 -0.552 -0.253 -0.805 -1.564 -0.805 -1.012 0 -1.518 0.046 -2.025 1.012h-2.174c0.702 -2.117 2.68 -2.324 4.544 -2.324 3.232 -0.012 3.738 1.001 3.428 2.312zm-2.473 1.472c-0.46 0.15 -0.909 0.253 -1.369 0.253l-1.369 0.15c-0.805 0 -1.208 0.253 -1.369 0.863 -0.15 0.61 0.357 1.012 1.208 1.012 1.162 0 2.519 -0.61 2.772 -1.714 0.023 -0.012 0.127 -0.564 0.127 -0.564zm-19.843 -0.161c-0.15 1.162 -1.162 2.025 -2.324 1.967 -1.012 0 -1.415 -0.506 -1.208 -1.415l0.805 -3.992h-2.22l-1.012 4.647c-0.46 2.025 1.265 2.427 2.427 2.427 1.116 0 2.174 -0.403 3.025 -1.162l-0.207 0.909h2.174l1.461 -6.821h-2.278c0.012 0.012 -0.644 3.439 -0.644 3.439zm23.029 3.439h2.278l1.461 -6.821h-2.278l-1.461 6.718v0.104zm2.013 -9.191 -0.299 1.415h2.22l0.299 -1.415h-2.22z"/></svg>
