<svg xmlns="http://www.w3.org/2000/svg" xmlns:xlink="http://www.w3.org/1999/xlink" version="1.1" baseProfile="basic" x="0px" y="0px" viewBox="0 0 90 112.5" xml:space="preserve"><g><g><path d="M48.334,76.709c-0.101,0-0.202-0.016-0.301-0.047l-28.544-9.016c-0.416-0.131-0.699-0.517-0.699-0.953v-6.339    c0-0.553,0.448-1,1-1s1,0.447,1,1v5.606l26.543,8.384V15.655L20.791,24.04v5.606c0,0.552-0.448,1-1,1s-1-0.448-1-1v-6.339    c0-0.436,0.283-0.822,0.699-0.954l28.544-9.016c0.305-0.097,0.636-0.041,0.892,0.147c0.257,0.188,0.409,0.488,0.409,0.807v61.418    c0,0.318-0.152,0.618-0.409,0.807C48.752,76.643,48.544,76.709,48.334,76.709z"/><path d="M6.426,40.415C2.883,40.415,0,37.532,0,33.989c0-3.543,2.883-6.426,6.426-6.426c3.543,0,6.426,2.883,6.426,6.426    C12.852,37.532,9.969,40.415,6.426,40.415z M6.426,29.563C3.986,29.563,2,31.549,2,33.989s1.986,4.426,4.426,4.426    s4.426-1.985,4.426-4.426S8.867,29.563,6.426,29.563z"/><path d="M19.958,48.529c-2.047,0-3.713-1.666-3.713-3.713c0-2.047,1.666-3.713,3.713-3.713s3.713,1.666,3.713,3.713    C23.671,46.863,22.005,48.529,19.958,48.529z M19.958,43.104c-0.944,0-1.713,0.769-1.713,1.713s0.769,1.713,1.713,1.713    c0.945,0,1.713-0.769,1.713-1.713S20.903,43.104,19.958,43.104z"/><path d="M7.421,60.421c-2.592,0-4.7-2.108-4.7-4.7s2.108-4.7,4.7-4.7c2.591,0,4.7,2.108,4.7,4.7S10.013,60.421,7.421,60.421z     M7.421,53.021c-1.489,0-2.7,1.211-2.7,2.7s1.211,2.7,2.7,2.7s2.7-1.211,2.7-2.7S8.91,53.021,7.421,53.021z"/><circle cx="29.421" cy="55.181" r="1.357"/><circle cx="28.519" cy="34.444" r="1.357"/><circle cx="34.83" cy="44.361" r="1.357"/></g><g><path d="M80.739,37.917c-2.98,0-5.96-1.295-8.919-3.885c-5.116-4.478-10.089-4.477-15.205,0c-0.415,0.363-1.047,0.322-1.411-0.094    c-0.363-0.416-0.321-1.047,0.095-1.411c5.918-5.18,11.92-5.18,17.838,0c5.117,4.478,10.088,4.478,15.205,0    c0.414-0.364,1.046-0.323,1.411,0.094c0.363,0.416,0.321,1.047-0.095,1.411C86.699,36.622,83.72,37.917,80.739,37.917z"/><path d="M80.739,49.637c-2.98,0-5.96-1.294-8.919-3.884c-5.117-4.477-10.088-4.477-15.205,0c-0.415,0.363-1.047,0.322-1.411-0.094    c-0.363-0.416-0.321-1.047,0.095-1.411c5.918-5.18,11.92-5.18,17.838,0c5.117,4.477,10.088,4.477,15.205,0    c0.414-0.364,1.046-0.322,1.411,0.094c0.363,0.416,0.321,1.047-0.095,1.411C86.699,48.343,83.72,49.637,80.739,49.637z"/><path d="M80.739,61.357c-2.98,0-5.96-1.294-8.919-3.884c-5.117-4.479-10.088-4.479-15.205,0c-0.415,0.362-1.047,0.322-1.411-0.095    c-0.363-0.415-0.321-1.047,0.095-1.411c5.918-5.18,11.92-5.18,17.838,0c5.117,4.479,10.088,4.479,15.205,0    c0.414-0.364,1.046-0.323,1.411,0.095c0.363,0.415,0.321,1.047-0.095,1.411C86.699,60.063,83.72,61.357,80.739,61.357z"/></g></g><text x="0" y="105" fill="#000000" font-size="5px" font-weight="bold" font-family="'Helvetica Neue', Helvetica, Arial-Unicode, Arial, Sans-serif">Created by iconpacks</text><text x="0" y="110" fill="#000000" font-size="5px" font-weight="bold" font-family="'Helvetica Neue', Helvetica, Arial-Unicode, Arial, Sans-serif">from the Noun Project</text></svg>