<svg xmlns="http://www.w3.org/2000/svg" xmlns:xlink="http://www.w3.org/1999/xlink" version="1.1" x="0px" y="0px" viewBox="0 0 160 200" style="enable-background:new 0 0 160 160;" xml:space="preserve"><path d="M113.733,60.792h-2.521V35.954c0-17.211-14.002-31.213-31.213-31.213S48.787,18.743,48.787,35.954v24.838h-2.52  c-7.444,0-13.5,6.056-13.5,13.5v67.467c0,7.444,6.056,13.5,13.5,13.5h67.467c7.444,0,13.5-6.056,13.5-13.5V74.292  C127.233,66.848,121.178,60.792,113.733,60.792z M55.787,35.954c0-13.351,10.862-24.213,24.213-24.213  c13.351,0,24.213,10.862,24.213,24.213v24.838H98.22V35.608c0-10.046-8.174-18.22-18.22-18.22c-10.047,0-18.22,8.173-18.22,18.22  v25.184h-5.993V35.954z M91.22,60.792H68.78V35.608c0-6.187,5.033-11.22,11.22-11.22c6.187,0,11.22,5.033,11.22,11.22V60.792z   M120.233,141.759c0,3.584-2.916,6.5-6.5,6.5H46.267c-3.584,0-6.5-2.916-6.5-6.5V74.292c0-3.584,2.916-6.5,6.5-6.5h6.02H65.28h29.44  h12.993h6.021c3.584,0,6.5,2.916,6.5,6.5V141.759z"/><path d="M88.576,104.481c-0.006,0-0.013,0-0.019,0c-2.161,0.006-4.129,1.018-5.135,2.642c-0.728,1.173-0.372,2.724,0.802,3.45  c0.413,0.256,0.87,0.378,1.321,0.378c0.832,0,1.644-0.416,2.114-1.177c0.003-0.003,0.251-0.291,0.911-0.293c0.002,0,0.004,0,0.006,0  c0.613,0,0.87,0.251,0.9,0.284c0.736,1.16,2.271,1.505,3.436,0.779c1.171-0.732,1.526-2.275,0.795-3.445  C92.697,105.483,90.732,104.481,88.576,104.481z"/><path d="M83.99,118.813c-1.059,0.97-2.482,1.507-4.012,1.511c-0.006,0-0.011,0-0.017,0c-1.517,0-2.934-0.526-3.992-1.483  c-1.023-0.927-2.605-0.846-3.531,0.178c-0.926,1.023-0.847,2.604,0.177,3.531c1.979,1.79,4.586,2.774,7.346,2.774  c0.01,0,0.021,0,0.03,0c2.778-0.008,5.398-1.011,7.377-2.825c1.018-0.933,1.086-2.515,0.153-3.532  C86.589,117.948,85.007,117.879,83.99,118.813z"/><path d="M75.778,110.592c1.17-0.732,1.525-2.275,0.792-3.445c-1.011-1.615-2.976-2.617-5.131-2.617c-0.006,0-0.012,0-0.018,0  c-2.162,0.006-4.129,1.018-5.135,2.642c-0.728,1.173-0.372,2.724,0.802,3.45c0.413,0.256,0.87,0.378,1.32,0.378  c0.833,0,1.644-0.416,2.115-1.177c0.002-0.003,0.25-0.291,0.91-0.293c0.002,0,0.004,0,0.006,0c0.637,0,0.889,0.271,0.893,0.271  C73.064,110.97,74.606,111.323,75.778,110.592z"/><path d="M102.501,105.235c-3.127-8.876-11.739-14.958-21.777-15.241c1.518-0.326,2.794-1.326,3.459-2.752  c0.727-1.559,0.605-3.352-0.329-4.804l-0.056-0.086c-0.751-1.158-2.3-1.489-3.458-0.739c-1.159,0.751-1.49,2.299-0.739,3.458  l0.067,0.043c-2.48,0.315-4.35,2.438-4.35,4.938v0.363c-8.293,1.55-15.114,7.136-17.82,14.819c-3.732,0.257-6.689,3.371-6.689,7.162  c0,3.798,2.959,6.917,6.692,7.174c3.211,9.089,12.162,15.267,22.498,15.267c10.335,0,19.286-6.178,22.498-15.267  c3.733-0.257,6.692-3.377,6.692-7.174C109.19,108.606,106.233,105.492,102.501,105.235z M102,114.588  c-0.216,0-0.397-0.025-0.571-0.079c-0.657-0.202-1.371-0.126-1.97,0.213c-0.6,0.339-1.032,0.911-1.196,1.58  c-1.957,7.97-9.467,13.536-18.263,13.536c-8.657,0-16.337-5.692-18.262-13.536c-0.164-0.669-0.597-1.24-1.196-1.58  c-0.379-0.215-0.804-0.324-1.231-0.324c-0.248,0-0.497,0.037-0.739,0.111c-0.174,0.054-0.355,0.079-0.571,0.079  c-1.208,0-2.19-0.982-2.19-2.19c0-1.202,0.982-2.18,2.19-2.18c0.217,0,0.397,0.024,0.566,0.077c0.659,0.206,1.373,0.129,1.974-0.211  s1.035-0.912,1.198-1.583c1.914-7.842,9.593-13.533,18.261-13.533s16.348,5.691,18.262,13.533c0.164,0.671,0.598,1.243,1.198,1.583  s1.316,0.417,1.975,0.211c0.169-0.053,0.349-0.077,0.565-0.077c1.208,0,2.19,0.978,2.19,2.18  C104.19,113.605,103.208,114.588,102,114.588z"/><text x="0" y="175" fill="#000000" font-size="5px" font-weight="bold" font-family="'Helvetica Neue', Helvetica, Arial-Unicode, Arial, Sans-serif">Created by Symbolon</text><text x="0" y="180" fill="#000000" font-size="5px" font-weight="bold" font-family="'Helvetica Neue', Helvetica, Arial-Unicode, Arial, Sans-serif">from the Noun Project</text></svg>