<svg xmlns="http://www.w3.org/2000/svg" data-name="Layer 1" viewBox="0 0 30 37.5" x="0px" y="0px"><title>light-brightness-dim-sun</title><circle cx="15" cy="15" r="4"/><path d="M15,9a1,1,0,0,0,1-1V7a1,1,0,0,0-2,0V8A1,1,0,0,0,15,9Z"/><path d="M15,21a1,1,0,0,0-1,1v1a1,1,0,0,0,2,0V22A1,1,0,0,0,15,21Z"/><path d="M23,14H22a1,1,0,0,0,0,2h1a1,1,0,0,0,0-2Z"/><path d="M9,15a1,1,0,0,0-1-1H7a1,1,0,0,0,0,2H8A1,1,0,0,0,9,15Z"/><path d="M19.95,11.05a1,1,0,0,0,.707-.293l.707-.707A1,1,0,0,0,19.95,8.636l-.707.707a1,1,0,0,0,.707,1.707Z"/><path d="M9.343,19.243l-.707.707a1,1,0,1,0,1.414,1.414l.707-.707a1,1,0,1,0-1.414-1.414Z"/><path d="M20.657,19.243a1,1,0,0,0-1.414,1.414l.707.707a1,1,0,0,0,1.414-1.414Z"/><path d="M9.343,10.757a1,1,0,1,0,1.414-1.414l-.707-.707A1,1,0,0,0,8.636,10.05Z"/><text x="0" y="45" fill="#000000" font-size="5px" font-weight="bold" font-family="'Helvetica Neue', Helvetica, Arial-Unicode, Arial, Sans-serif">Created by Becris</text><text x="0" y="50" fill="#000000" font-size="5px" font-weight="bold" font-family="'Helvetica Neue', Helvetica, Arial-Unicode, Arial, Sans-serif">from the Noun Project</text></svg>